<svg preserveAspectRatio="xMidYMid" viewBox="0 0 110.563 103.313" xmlns="http://www.w3.org/2000/svg" class="svg svg-converted" style="width: 50px; height: 46.82px;">
  <defs>
    <style>
      .cls-1, .cls-2 {
        fill: #4e4e4e;
      }

      .cls-1 {
        opacity: 0.8;
        fill-rule: evenodd;
      }
    </style>
  </defs>
  <g>
    <path d="M18.060,94.540 L1.060,65.095 C-1.150,61.269 0.161,56.376 3.988,54.167 C7.814,51.958 12.707,53.269 14.916,57.095 L31.916,86.540 C34.125,90.366 32.814,95.259 28.988,97.468 C25.161,99.677 20.269,98.366 18.060,94.540 Z" class="cls-1"></path>
    <path d="M109.492,65.229 L92.492,94.674 C90.283,98.500 85.390,99.811 81.564,97.602 C77.738,95.393 76.427,90.500 78.636,86.674 L95.636,57.229 C97.845,53.403 102.738,52.092 106.564,54.301 C110.390,56.510 111.701,61.403 109.492,65.229 Z" class="cls-1"></path>
    <path d="M38.844,-0.000 L72.844,-0.000 C77.262,-0.000 80.844,3.582 80.844,8.000 C80.844,12.418 77.262,16.000 72.844,16.000 L38.844,16.000 C34.426,16.000 30.844,12.418 30.844,8.000 C30.844,3.582 34.426,-0.000 38.844,-0.000 Z" class="cls-1"></path>
    <circle cx="55.454" cy="53.328" r="49.985" class="cls-2"></circle>
  </g>
</svg>