<svg preserveAspectRatio="xMidYMid" viewBox="0 0 326 116" xmlns="http://www.w3.org/2000/svg" class="svg svg-converted" style="width: 148.18px; height: 52.73px;">
  <defs>
    <style>
      .cls-1, .cls-2 {
        fill: #4e4e4e;
      }

      .cls-1 {
        opacity: 0.8;
        fill-rule: evenodd;
      }
    </style>
  </defs>
  <g>
    <path d="M29.000,100.000 L63.000,100.000 C67.418,100.000 71.000,103.582 71.000,108.000 C71.000,112.418 67.418,116.000 63.000,116.000 L29.000,116.000 C24.582,116.000 21.000,112.418 21.000,108.000 C21.000,103.582 24.582,100.000 29.000,100.000 Z" class="cls-1"></path>
    <path d="M29.000,-0.000 L63.000,-0.000 C67.418,-0.000 71.000,3.582 71.000,8.000 C71.000,12.418 67.418,16.000 63.000,16.000 L29.000,16.000 C24.582,16.000 21.000,12.418 21.000,8.000 C21.000,3.582 24.582,-0.000 29.000,-0.000 Z" class="cls-1"></path>
    <path d="M107.000,100.000 L141.000,100.000 C145.418,100.000 149.000,103.582 149.000,108.000 C149.000,112.418 145.418,116.000 141.000,116.000 L107.000,116.000 C102.582,116.000 99.000,112.418 99.000,108.000 C99.000,103.582 102.582,100.000 107.000,100.000 Z" class="cls-1"></path>
    <path d="M107.000,-0.000 L141.000,-0.000 C145.418,-0.000 149.000,3.582 149.000,8.000 C149.000,12.418 145.418,16.000 141.000,16.000 L107.000,16.000 C102.582,16.000 99.000,12.418 99.000,8.000 C99.000,3.582 102.582,-0.000 107.000,-0.000 Z" class="cls-1"></path>
    <path d="M185.000,100.000 L219.000,100.000 C223.418,100.000 227.000,103.582 227.000,108.000 C227.000,112.418 223.418,116.000 219.000,116.000 L185.000,116.000 C180.582,116.000 177.000,112.418 177.000,108.000 C177.000,103.582 180.582,100.000 185.000,100.000 Z" class="cls-1"></path>
    <path d="M185.000,-0.000 L219.000,-0.000 C223.418,-0.000 227.000,3.582 227.000,8.000 C227.000,12.418 223.418,16.000 219.000,16.000 L185.000,16.000 C180.582,16.000 177.000,12.418 177.000,8.000 C177.000,3.582 180.582,-0.000 185.000,-0.000 Z" class="cls-1"></path>
    <path d="M262.000,100.000 L296.000,100.000 C300.418,100.000 304.000,103.582 304.000,108.000 C304.000,112.418 300.418,116.000 296.000,116.000 L262.000,116.000 C257.582,116.000 254.000,112.418 254.000,108.000 C254.000,103.582 257.582,100.000 262.000,100.000 Z" class="cls-1"></path>
    <path d="M263.000,-0.000 L297.000,-0.000 C301.418,-0.000 305.000,3.582 305.000,8.000 C305.000,12.418 301.418,16.000 297.000,16.000 L263.000,16.000 C258.582,16.000 255.000,12.418 255.000,8.000 C255.000,3.582 258.582,-0.000 263.000,-0.000 Z" class="cls-1"></path>
    <rect y="8" width="326" height="100" class="cls-2"></rect>
  </g>
</svg>