<svg preserveAspectRatio="xMidYMid" viewBox="0 0 116 116" xmlns="http://www.w3.org/2000/svg" class="svg svg-converted" style="width: 52.73px; height: 52.73px;">
  <defs>
    <style>
      .cls-1, .cls-2 {
        fill: #4e4e4e;
      }

      .cls-1 {
        opacity: 0.8;
        fill-rule: evenodd;
      }
    </style>
  </defs>
  <g>
    <path d="M41.000,-0.000 L75.000,-0.000 C79.418,-0.000 83.000,3.582 83.000,8.000 C83.000,12.418 79.418,16.000 75.000,16.000 L41.000,16.000 C36.582,16.000 33.000,12.418 33.000,8.000 C33.000,3.582 36.582,-0.000 41.000,-0.000 Z" class="cls-1"></path>
    <path d="M41.000,100.000 L75.000,100.000 C79.418,100.000 83.000,103.582 83.000,108.000 C83.000,112.418 79.418,116.000 75.000,116.000 L41.000,116.000 C36.582,116.000 33.000,112.418 33.000,108.000 C33.000,103.582 36.582,100.000 41.000,100.000 Z" class="cls-1"></path>
    <path d="M108.000,33.000 C112.418,33.000 116.000,36.582 116.000,41.000 L116.000,75.000 C116.000,79.418 112.418,83.000 108.000,83.000 C103.582,83.000 100.000,79.418 100.000,75.000 L100.000,41.000 C100.000,36.582 103.582,33.000 108.000,33.000 Z" class="cls-1"></path>
    <path d="M8.000,33.000 C12.418,33.000 16.000,36.582 16.000,41.000 L16.000,75.000 C16.000,79.418 12.418,83.000 8.000,83.000 C3.582,83.000 -0.000,79.418 -0.000,75.000 L-0.000,41.000 C-0.000,36.582 3.582,33.000 8.000,33.000 Z" class="cls-1"></path>
    <circle cx="58" cy="58" r="55" class="cls-2"></circle>
  </g>
</svg>