<svg preserveAspectRatio="xMidYMid" viewBox="0 0 156.219 157.594" xmlns="http://www.w3.org/2000/svg" class="svg svg-converted" style="width: 70.91px; height: 71.82px;">
  <defs>
    <style>
      .cls-1, .cls-2 {
        fill: #4e4e4e;
      }

      .cls-1 {
        opacity: 0.8;
        fill-rule: evenodd;
      }
    </style>
  </defs>
  <g>
    <path d="M1.064,53.842 L18.064,24.397 C20.273,20.571 25.166,19.260 28.992,21.469 C32.818,23.678 34.129,28.571 31.920,32.397 L14.920,61.842 C12.711,65.668 7.818,66.979 3.992,64.770 C0.166,62.561 -1.145,57.668 1.064,53.842 Z" class="cls-1"></path>
    <path d="M18.064,133.574 L1.064,104.129 C-1.145,100.303 0.166,95.410 3.992,93.201 C7.818,90.992 12.711,92.303 14.920,96.129 L31.920,125.574 C34.129,129.400 32.818,134.293 28.992,136.502 C25.166,138.711 20.273,137.400 18.064,133.574 Z" class="cls-1"></path>
    <path d="M94.690,157.586 L60.690,157.586 C56.272,157.586 52.690,154.004 52.690,149.586 C52.690,145.168 56.272,141.586 60.690,141.586 L94.690,141.586 C99.108,141.586 102.690,145.168 102.690,149.586 C102.690,154.004 99.108,157.586 94.690,157.586 Z" class="cls-1"></path>
    <path d="M155.066,103.727 L138.066,133.172 C135.856,136.998 130.964,138.309 127.137,136.100 C123.311,133.891 122.000,128.998 124.209,125.172 L141.209,95.727 C143.418,91.901 148.311,90.590 152.137,92.799 C155.964,95.008 157.275,99.901 155.066,103.727 Z" class="cls-1"></path>
    <path d="M138.150,23.624 L155.150,53.069 C157.360,56.895 156.048,61.788 152.222,63.997 C148.396,66.206 143.503,64.895 141.294,61.069 L124.294,31.624 C122.085,27.798 123.396,22.905 127.222,20.696 C131.048,18.487 135.941,19.798 138.150,23.624 Z" class="cls-1"></path>
    <path d="M61.156,-0.000 L95.156,-0.000 C99.574,-0.000 103.156,3.582 103.156,8.000 C103.156,12.418 99.574,16.000 95.156,16.000 L61.156,16.000 C56.738,16.000 53.156,12.418 53.156,8.000 C53.156,3.582 56.738,-0.000 61.156,-0.000 Z" class="cls-1"></path>
    <circle cx="77.984" cy="78.61" r="75.016" class="cls-2"></circle>
  </g>
</svg>