<svg preserveAspectRatio="xMidYMid" viewBox="0 0 139.75 133.906" xmlns="http://www.w3.org/2000/svg" class="svg svg-converted" style="width: 63.64px; height: 60.91px;">
  <defs>
    <style>
      .cls-1, .cls-2 {
        fill: #4e4e4e;
      }

      .cls-1 {
        opacity: 0.8;
        fill-rule: evenodd;
      }
    </style>
  </defs>
  <g>
    <path d="M0.393,62.233 L10.899,29.897 C12.265,25.695 16.778,23.396 20.980,24.761 C25.182,26.126 27.482,30.640 26.116,34.842 L15.610,67.178 C14.244,71.380 9.731,73.679 5.529,72.314 C1.327,70.949 -0.973,66.435 0.393,62.233 Z" class="cls-1"></path>
    <path d="M42.557,131.407 L15.050,111.422 C11.476,108.825 10.683,103.822 13.281,100.248 C15.877,96.673 20.880,95.881 24.455,98.478 L51.961,118.463 C55.536,121.060 56.328,126.063 53.731,129.637 C51.134,133.212 46.131,134.004 42.557,131.407 Z" class="cls-1"></path>
    <path d="M123.890,112.380 L96.383,132.365 C92.809,134.962 87.806,134.169 85.209,130.595 C82.612,127.020 83.404,122.017 86.978,119.420 L114.485,99.436 C118.059,96.839 123.062,97.631 125.659,101.206 C128.256,104.780 127.464,109.783 123.890,112.380 Z" class="cls-1"></path>
    <path d="M128.848,29.090 L139.355,61.426 C140.720,65.628 138.421,70.141 134.219,71.506 C130.017,72.871 125.503,70.572 124.138,66.370 L113.632,34.034 C112.266,29.832 114.566,25.319 118.768,23.953 C122.970,22.588 127.483,24.888 128.848,29.090 Z" class="cls-1"></path>
    <path d="M53.219,-0.000 L87.219,-0.000 C91.637,-0.000 95.219,3.582 95.219,8.000 C95.219,12.418 91.637,16.000 87.219,16.000 L53.219,16.000 C48.801,16.000 45.219,12.418 45.219,8.000 C45.219,3.582 48.801,-0.000 53.219,-0.000 Z" class="cls-1"></path>
    <circle cx="70.313" cy="67.078" r="65" class="cls-2"></circle>
  </g>
</svg>