<svg preserveAspectRatio="xMidYMid" viewBox="0 0 177.906 176.594" xmlns="http://www.w3.org/2000/svg" class="svg svg-converted" style="width: 80.91px; height: 80.45px;">
  <defs>
    <style>
      .cls-1, .cls-2 {
        fill: #4e4e4e;
      }

      .cls-1 {
        opacity: 0.8;
        fill-rule: evenodd;
      }
    </style>
  </defs>
  <g>
    <path d="M14.460,37.606 L38.501,13.564 C41.625,10.440 46.691,10.440 49.815,13.564 C52.939,16.689 52.939,21.754 49.815,24.878 L25.773,48.920 C22.649,52.044 17.584,52.044 14.460,48.920 C11.335,45.796 11.335,40.730 14.460,37.606 Z" class="cls-1"></path>
    <path d="M-0.001,105.104 L-0.001,71.103 C-0.001,66.685 3.580,63.104 7.999,63.104 C12.417,63.104 15.999,66.685 15.999,71.103 L15.999,105.104 C15.999,109.522 12.417,113.103 7.999,113.103 C3.580,113.103 -0.001,109.522 -0.001,105.104 Z" class="cls-1"></path>
    <path d="M37.546,164.977 L13.504,140.935 C10.380,137.811 10.380,132.746 13.504,129.622 C16.628,126.497 21.694,126.497 24.818,129.622 L48.860,153.663 C51.984,156.787 51.984,161.853 48.860,164.977 C45.735,168.101 40.670,168.101 37.546,164.977 Z" class="cls-1"></path>
    <path d="M106.352,176.598 L72.352,176.598 C67.934,176.598 64.352,173.017 64.352,168.598 C64.352,164.180 67.934,160.598 72.352,160.598 L106.352,160.598 C110.771,160.598 114.352,164.180 114.352,168.598 C114.352,173.017 110.771,176.598 106.352,176.598 Z" class="cls-1"></path>
    <path d="M165.201,139.780 L141.159,163.822 C138.035,166.946 132.969,166.946 129.845,163.822 C126.721,160.697 126.721,155.632 129.845,152.508 L153.887,128.466 C157.011,125.342 162.076,125.342 165.201,128.466 C168.325,131.591 168.325,136.656 165.201,139.780 Z" class="cls-1"></path>
    <path d="M177.894,71.541 L177.894,105.541 C177.894,109.959 174.313,113.541 169.894,113.541 C165.476,113.541 161.894,109.959 161.894,105.541 L161.894,71.541 C161.894,67.123 165.476,63.541 169.894,63.541 C174.313,63.541 177.894,67.123 177.894,71.541 Z" class="cls-1"></path>
    <path d="M140.309,14.418 L164.350,38.460 C167.475,41.584 167.475,46.649 164.350,49.774 C161.226,52.898 156.161,52.898 153.037,49.774 L128.995,25.732 C125.871,22.608 125.871,17.542 128.995,14.418 C132.119,11.294 137.185,11.294 140.309,14.418 Z" class="cls-1"></path>
    <path d="M72.250,-0.000 L106.250,-0.000 C110.668,-0.000 114.250,3.582 114.250,8.000 C114.250,12.418 110.668,16.000 106.250,16.000 L72.250,16.000 C67.832,16.000 64.250,12.418 64.250,8.000 C64.250,3.582 67.832,-0.000 72.250,-0.000 Z" class="cls-1"></path>
    <circle cx="89.422" cy="88.515" r="84.984" class="cls-2"></circle>
  </g>
</svg>